<svg xmlns="http://www.w3.org/2000/svg" viewBox="0 0 158.75 180"><title>spendabit-logo</title><path d="M134.08,103.64A56.37,56.37,0,1,1,93,35.29a56.38,56.38,0,0,1,41.07,68.35ZM104.23,82c1.13-7.5-4.59-11.53-12.4-14.22l2.53-10.17L88.18,56l-2.47,9.9c-1.63-.41-3.3-.79-5-1.17l2.49-10-6.19-1.54L74.52,63.42c-1.35-.31-2.67-.61-4-.93v0L62,60.33l-1.65,6.6S65,68,64.89,68.05c2.5.63,3,2.29,2.88,3.6L64.88,83.23a5.93,5.93,0,0,1,.65.21l-.66-.16L60.82,99.5A2.25,2.25,0,0,1,58,101c.06.09-4.5-1.12-4.5-1.12l-3.07,7.08,8,2c1.5.37,3,.77,4.41,1.13l-2.56,10.29,6.18,1.54L69,111.73c1.69.45,3.33.88,4.93,1.27l-2.53,10.13,6.19,1.54,2.56-10.26c10.55,2,18.49,1.19,21.83-8.35,2.69-7.69-.13-12.12-5.69-15,4-.93,7.09-3.59,7.9-9.09ZM90.1,101.79c-1.92,7.69-14.85,3.53-19,2.49l3.4-13.62c4.19,1,17.65,3.12,15.65,11.13ZM92,81.86c-1.74,7-12.51,3.43-16,2.56l3.08-12.35c3.5.87,14.75,2.5,12.93,9.79Z" fill="#8cc644"/><path d="M158.7,87.23A79.39,79.39,0,0,0,83.47,10.72L93.66,3.84A2.1,2.1,0,0,0,91.3.36l-18,12.17L89.43,27.1a2,2,0,0,0,1.41.54A2.1,2.1,0,0,0,92.25,24L82.17,14.89A75.16,75.16,0,0,1,154.5,87.37c0,.89,0,1.78,0,2.67a75.19,75.19,0,0,1-62.27,74,2.1,2.1,0,0,0,.36,4.17,2.19,2.19,0,0,0,.36,0A79.41,79.41,0,0,0,158.75,90C158.75,89.11,158.74,88.17,158.7,87.23Z"/><path d="M69.32,152.89A2.1,2.1,0,1,0,66.51,156l10.07,9.09A75.15,75.15,0,0,1,4.26,92.62c0-.9,0-1.79,0-2.67a75.18,75.18,0,0,1,62.27-74,2.1,2.1,0,1,0-.71-4.13A79.37,79.37,0,0,0,0,90c0,.93,0,1.87.05,2.82a79.39,79.39,0,0,0,75.24,76.5L65.1,176.15a2.1,2.1,0,0,0-.56,2.92,2.06,2.06,0,0,0,1.74.93,2.12,2.12,0,0,0,1.17-.36l18-12.18L69.32,152.89Z"/></svg>